<?xml version="1.0" encoding="UTF-8"?>
<svg id="Layer_1" data-name="Layer 1" xmlns="http://www.w3.org/2000/svg" viewBox="0 0 1080 1080">
  <defs>
    <style>
      .cls-1 {
        fill: #fff;
      }

      .cls-2 {
        fill: #cdebf3;
      }

      .cls-3 {
        fill: #005481;
      }

      .cls-4 {
        fill: #025381;
      }

      .cls-5 {
        fill: #83cbea;
      }

      .cls-6 {
        fill: #d9291c;
      }
    </style>
  </defs>
  <rect class="cls-6" x="-.5" width="1081" height="1080" rx="276.79" ry="276.79"/>
  <g>
    <path class="cls-1" d="M903.04,476.2c-30.6-58.12-93.65-96.87-150.14-126.2-61.77-32.03-133.08-49.53-181.76-102.26-9.11-9.86-29.12-30.7-31.05-46.42-.03-.23-.07-.49-.08-.72-.02,.23-.05,.49-.08,.72-1.94,15.72-21.94,36.55-31.05,46.42-48.68,52.73-120,70.23-181.75,102.26-56.51,29.33-119.56,68.08-150.16,126.2,0,0-84.23,124.28,70.75,223.64-11.38-7.76-149.36-106.54,8.28-232.36,52.98-42.27,115.67-60.97,177.26-86.05,34.94-14.24,104.2-44.95,106.75-90.69,2.56,45.73,71.82,76.45,106.77,90.69,61.57,25.08,124.28,43.78,177.24,86.05,157.64,125.83,19.66,224.6,8.28,232.36,154.97-99.36,70.75-223.64,70.75-223.64Z"/>
    <g>
      <path d="M758.7,630.16l-55.6,.04h-8.9l-74.28,.05h-8.9s-25.32,.02-25.32,.02h-8.9s-74.28,.05-74.28,.05h-8.9s-24.76,.02-24.76,.02h-8.9s-74.28,.05-74.28,.05h-8.9l-55.16,.04-.11,.16-92.88,119.01c-.18,.23-.28,.52-.28,.82v68.92c0,1.28,1.62,1.82,2.4,.8l90.76-119.84v179.09h436.96l.03-37.96,.11-122.09,.02-18.1,91.41,120.32c.51,.68,1.59,.31,1.59-.54v-68.49c0-.19-.06-.38-.18-.54l-92.76-121.85Zm-437.18,55.38l-84.29,111.3v-43.69l84.29-109.25v41.65Zm428.09,184.88H330.4v-29h419.22v29Zm0-37.99H330.4v-104.08h419.22v104.08Zm0-113.09H330.4v-79.95h419.22v79.95Zm93.16,77.89l-84.12-107.78,.04-40.28,.02-3.31,84.07,109.49v41.89Z"/>
      <polygon class="cls-5" points="842.77 755.35 842.77 797.24 758.65 689.45 758.69 649.17 758.7 645.86 842.77 755.35"/>
      <polygon class="cls-5" points="321.52 643.9 321.52 685.54 237.23 796.84 237.23 753.15 321.52 643.9"/>
      <rect class="cls-2" x="330.4" y="841.43" width="419.22" height="29"/>
      <rect class="cls-2" x="330.4" y="639.4" width="419.22" height="79.95"/>
      <path class="cls-3" d="M330.4,728.35v104.08h419.22v-104.08H330.4Zm231.28,75.68c-4.86,9.1-14.02,12.42-17.72,13.43-1.33,.36-2.71,.55-4.1,.55s-2.78-.18-4.11-.55c-3.71-1-12.87-4.32-17.72-13.43-3.74-7.01-3.96-15.46-.69-25.11,.39-1.19,.83-2.33,1.22-3.29,1.87-4.69,4.18-9.4,7.06-14.39,3.43-5.97,7.72-12.83,13.4-18.51l.97-.97,.79,.84c2.99,3.21,5.52,6.66,7.59,9.6,3.89,5.52,7.4,11.61,10.45,18.09,1.49,3.18,2.65,6,3.54,8.63,3.28,9.65,3.06,18.1-.67,25.11Z"/>
      <path d="M589.16,574.09l-3.57-4.31c-.29-.34-.44-.77-.44-1.22v-18.75l-.02-.33c-.39-5.25-2.43-10.98-6.22-17.54-7.38-12.76-19.32-24.64-20.46-25.75v-14.86c0-5.06-4.11-9.17-9.17-9.17h-18.93c-5.06,0-9.17,4.11-9.17,9.17v14.59l-.2,.2c-.53,.52-12.94,12.71-20.53,25.83-3.81,6.56-5.84,12.3-6.23,17.54l-.02,.33v18.92c0,.33-.11,.65-.33,.91l-3.79,4.58c-.21,.26-.33,.58-.33,.91v36.92c0,.39,.13,.77,.36,1.08l3.18,4.35c.24,.32,.36,.7,.36,1.08v19.04h22.53v-7.18h-13.63v-14.77c0-.39-.12-.77-.35-1.08l-3.19-4.35c-.23-.31-.36-.69-.36-1.08v-30.79c0-.33,.12-.66,.33-.92l3.79-4.57c.21-.26,.33-.58,.33-.92v-21.79c.31-4.23,2.31-9.03,5.04-13.74,5.34-9.23,13.48-18.16,17.14-21.98,1.2-1.25,1.91-1.95,1.91-1.95h24.97s.72,.7,1.91,1.95c3.66,3.82,11.8,12.75,17.14,21.98,2.73,4.71,4.73,9.51,5.05,13.74v21.63c0,.44,.15,.87,.44,1.21l3.57,4.31c.28,.34,.44,.77,.44,1.22v30.73c0,.32-.11,.63-.29,.88l-3.32,4.53c-.19,.26-.29,.57-.29,.89v14.88h-13.63v7.18h22.53v-19.16c0-.32,.11-.62,.29-.88l3.32-4.53c.19-.26,.29-.56,.29-.88v-36.86c0-.45-.16-.88-.44-1.22Zm-38.5-70.82c0,.11,0,.21-.02,.32h-21.66c-.02-.11-.02-.21-.02-.32v-9.94c0-1.56,1.27-2.82,2.82-2.82h16.06c1.56,0,2.83,1.26,2.83,2.82v9.94Z"/>
      <path class="cls-4" d="M550.66,493.34v9.94c0,.11,0,.21-.02,.32h-21.66c-.02-.11-.02-.21-.02-.32v-9.94c0-1.56,1.27-2.82,2.82-2.82h16.06c1.56,0,2.83,1.26,2.83,2.82Z"/>
      <path class="cls-5" d="M580.7,578.53v30.73c0,.32-.11,.63-.29,.88l-3.32,4.53c-.19,.26-.29,.57-.29,.89v14.71l-74.28,.05v-14.65c0-.39-.12-.77-.35-1.08l-3.19-4.35c-.23-.31-.36-.69-.36-1.08v-30.79c0-.33,.12-.66,.33-.92l3.79-4.57c.21-.26,.33-.58,.33-.92v-21.79c.31-4.23,2.31-9.03,5.04-13.74,5.34-9.23,13.48-18.16,17.14-21.98,1.2-1.25,1.91-1.95,1.91-1.95h24.97s.72,.7,1.91,1.95c3.66,3.82,11.8,12.75,17.14,21.98,2.73,4.71,4.73,9.51,5.05,13.74v21.63c0,.44,.15,.87,.44,1.21l3.57,4.31c.28,.34,.44,.77,.44,1.22Z"/>
      <path d="M472.27,574.02l-3.46-4.17c-.32-.39-.49-.87-.49-1.38v-18.66l-.02-.33c-.39-5.25-2.43-10.98-6.23-17.54-7.38-12.76-19.32-24.64-20.45-25.75v-14.86c0-5.06-4.11-9.17-9.17-9.17h-18.93c-5.07,0-9.17,4.11-9.17,9.17v14.59l-.21,.2c-.52,.52-12.93,12.71-20.53,25.83-3.8,6.56-5.84,12.3-6.22,17.54l-.02,.33v18.72c0,.46-.16,.92-.45,1.27l-3.53,4.26c-.3,.36-.46,.81-.46,1.27v36.42c0,.58,.18,1.14,.52,1.61l2.85,3.88c.34,.47,.52,1.03,.52,1.61v18.75h22.53v-7.18h-13.63v-14.49c0-.58-.18-1.14-.52-1.6l-2.85-3.89c-.33-.47-.52-1.03-.52-1.61v-30.31c0-.46,.17-.91,.46-1.27l3.53-4.27c.3-.36,.45-.8,.45-1.27v-21.6c.32-4.23,2.32-9.03,5.05-13.74,5.34-9.23,13.48-18.16,17.14-21.98,1.19-1.25,1.91-1.95,1.91-1.95h24.97s.71,.7,1.91,1.95c3.66,3.82,11.8,12.75,17.14,21.98,2.73,4.71,4.73,9.51,5.04,13.74v21.54c0,.5,.18,.99,.5,1.38l3.46,4.16c.32,.39,.5,.88,.5,1.38v30.54c0,.39-.13,.77-.36,1.08l-3.19,4.36c-.23,.31-.35,.69-.35,1.08v14.77h-13.63v7.18h22.53v-19.05c0-.39,.12-.76,.35-1.08l3.19-4.35c.23-.32,.36-.69,.36-1.08v-36.66c0-.5-.17-.99-.5-1.38Zm-38.45-70.75c0,.11,0,.21-.02,.32h-21.65c-.02-.11-.02-.21-.02-.32v-9.94c0-1.56,1.27-2.82,2.82-2.82h16.06c1.56,0,2.82,1.26,2.82,2.82v9.94Z"/>
      <path class="cls-4" d="M433.82,493.34v9.94c0,.11,0,.21-.02,.32h-21.65c-.02-.11-.02-.21-.02-.32v-9.94c0-1.56,1.27-2.82,2.82-2.82h16.06c1.56,0,2.82,1.26,2.82,2.82Z"/>
      <path class="cls-5" d="M463.87,578.61v30.54c0,.39-.13,.77-.36,1.08l-3.19,4.36c-.23,.31-.35,.69-.35,1.08v14.68l-74.28,.05v-14.44c0-.58-.18-1.14-.52-1.6l-2.85-3.89c-.33-.47-.52-1.03-.52-1.61v-30.31c0-.46,.17-.91,.46-1.27l3.53-4.27c.3-.36,.45-.8,.45-1.27v-21.6c.32-4.23,2.32-9.03,5.05-13.74,5.34-9.23,13.48-18.16,17.14-21.98,1.19-1.25,1.91-1.95,1.91-1.95h24.97s.71,.7,1.91,1.95c3.66,3.82,11.8,12.75,17.14,21.98,2.73,4.71,4.73,9.51,5.04,13.74v21.54c0,.5,.18,.99,.5,1.38l3.46,4.16c.32,.39,.5,.88,.5,1.38Z"/>
      <path d="M706.63,574.19l-3.73-4.5c-.23-.28-.36-.63-.36-1v-18.87l-.02-.33c-.39-5.25-2.43-10.98-6.23-17.54-7.38-12.76-19.32-24.64-20.45-25.75v-14.86c0-5.06-4.11-9.17-9.18-9.17h-18.92c-5.07,0-9.18,4.11-9.18,9.17v14.59l-.2,.2c-.52,.52-12.93,12.71-20.53,25.83-3.8,6.56-5.84,12.3-6.22,17.54l-.02,.33v18.17c0,.82-.29,1.61-.81,2.24l-2.84,3.43c-.52,.63-.8,1.42-.8,2.24v36.24c0,.34,.11,.68,.32,.96l3.26,4.46c.2,.28,.32,.62,.32,.97v19.1h22.53v-7.18h-13.63v-14.84c0-.35-.11-.69-.32-.97l-3.26-4.46c-.2-.28-.32-.61-.32-.96v-30.11c0-.82,.29-1.61,.81-2.24l2.84-3.42c.52-.63,.8-1.43,.8-2.24v-21.04c.31-4.23,2.32-9.03,5.05-13.74,5.34-9.23,13.47-18.16,17.13-21.98,1.2-1.25,1.92-1.95,1.92-1.95h24.97s.71,.7,1.91,1.95c3.66,3.82,11.8,12.75,17.14,21.98,2.73,4.71,4.73,9.51,5.04,13.74v21.75c0,.36,.13,.72,.36,1l3.73,4.5c.23,.28,.36,.64,.36,1v30.97c0,.24-.08,.48-.22,.67l-3.45,4.72c-.14,.2-.22,.43-.22,.67v15h-13.64v7.18h22.54v-19.27c0-.24,.08-.48,.22-.67l3.45-4.72c.14-.2,.23-.43,.23-.67v-37.09c0-.36-.13-.72-.36-1Zm-38.59-70.92c0,.11,0,.21-.02,.32h-21.65c-.02-.11-.02-.21-.02-.32v-9.94c0-1.56,1.27-2.82,2.82-2.82h16.06c1.56,0,2.82,1.26,2.82,2.82v9.94Z"/>
      <path class="cls-4" d="M668.04,493.34v9.94c0,.11,0,.21-.02,.32h-21.65c-.02-.11-.02-.21-.02-.32v-9.94c0-1.56,1.27-2.82,2.82-2.82h16.06c1.56,0,2.82,1.26,2.82,2.82Z"/>
      <path class="cls-5" d="M698.09,578.4v30.97c0,.24-.08,.48-.22,.67l-3.45,4.72c-.14,.2-.22,.43-.22,.67v14.76l-74.28,.05v-14.64c0-.35-.11-.69-.32-.97l-3.26-4.46c-.2-.28-.32-.61-.32-.96v-30.11c0-.82,.29-1.61,.81-2.24l2.84-3.42c.52-.63,.8-1.43,.8-2.24v-21.04c.31-4.23,2.32-9.03,5.05-13.74,5.34-9.23,13.47-18.16,17.13-21.98,1.2-1.25,1.92-1.95,1.92-1.95h24.97s.71,.7,1.91,1.95c3.66,3.82,11.8,12.75,17.14,21.98,2.73,4.71,4.73,9.51,5.04,13.74v21.75c0,.36,.13,.72,.36,1l3.73,4.5c.23,.28,.36,.64,.36,1Z"/>
      <path d="M562.35,778.92c-.89-2.63-2.05-5.46-3.54-8.63-3.05-6.48-6.56-12.57-10.45-18.09-2.07-2.94-4.59-6.38-7.59-9.6l-.79-.84-.97,.97c-5.69,5.68-9.97,12.55-13.4,18.51-2.87,4.99-5.19,9.7-7.06,14.39-.39,.96-.83,2.1-1.22,3.29-3.27,9.66-3.05,18.1,.69,25.11,4.84,9.1,14,12.42,17.72,13.43,1.33,.36,2.71,.55,4.11,.55s2.77-.18,4.1-.55c3.71-1,12.86-4.32,17.72-13.43,3.73-7.01,3.96-15.46,.67-25.11Zm-7.19,21.64c-3.49,6.56-10.35,9.02-13.13,9.77-.7,.19-1.43,.29-2.18,.29s-1.49-.1-2.18-.29c-2.78-.75-9.63-3.21-13.12-9.77-2.74-5.15-2.81-11.65-.2-19.31,.04-.12,4.06-12.52,14.86-27.4l.3-.31h.77l.23,.31c10.79,14.87,14.81,27.28,14.85,27.38,2.62,7.67,2.55,14.17-.19,19.32Z"/>
      <path class="cls-2" d="M555.15,800.56c-3.49,6.56-10.35,9.02-13.13,9.77-.7,.19-1.43,.29-2.18,.29s-1.49-.1-2.18-.29c-2.78-.75-9.63-3.21-13.12-9.77-2.74-5.15-2.81-11.65-.2-19.31,.04-.12,4.06-12.52,14.86-27.4l.3-.31h.77l.23,.31c10.79,14.87,14.81,27.28,14.85,27.38,2.62,7.67,2.55,14.17-.19,19.32Z"/>
    </g>
  </g>
</svg>